# xmcd CD database file
#
# Track frame offsets:
#	150
#	18225
#	39047
#	56057
#	71240
#	96080
#	111055
#	126885
#	140412
#	155325
#	169800
#	188147
#	199970
#	213650
#	225850
#
# Disc length: 3184 seconds
#
# Revision: 0
# Processed by: cddbd v1.4PL0 Copyright (c) Steve Scherf et al.
# Submitted via: CDex 1.50beta9
#
DISCID=cc0c6e0f
DTITLE=Sarah Vaughan - Greatest Jazz
DYEAR=1900
DGENRE=Jazz
TTITLE0=Smoke Gets In Your Eyes
TTITLE1=Doodlin
TTITLE2=Darn That Dream
TTITLE3=Moonlight In Vermont
TTITLE4=No Count Blues
TTITLE5=Star Dust
TTITLE6=Missing You
TTITLE7=My Funny Valentine
TTITLE8=Lover Man
TTITLE9=Tenderly
TTITLE10=Lush Life
TTITLE11=How High The Moon
TTITLE12=Misty
TTITLE13=Take The ``A'' Train
TTITLE14=Summertime
EXTD=
EXTT0=
EXTT1=
EXTT2=
EXTT3=
EXTT4=
EXTT5=
EXTT6=
EXTT7=
EXTT8=
EXTT9=
EXTT10=
EXTT11=
EXTT12=
EXTT13=
EXTT14=
PLAYORDER=
